<?xml version="1.0" encoding="UTF-8" standalone="no"?>
<!-- Uploaded to: SVG Repo, www.svgrepo.com, Generator: SVG Repo Mixer Tools -->

<svg
   height="64"
   width="64"
   version="1.1"
   id="_x32_"
   viewBox="0 0 64 64"
   xml:space="preserve"
   sodipodi:docname="dice.svg"
   inkscape:version="1.3.2 (091e20e, 2023-11-25, custom)"
   xmlns:inkscape="http://www.inkscape.org/namespaces/inkscape"
   xmlns:sodipodi="http://sodipodi.sourceforge.net/DTD/sodipodi-0.dtd"
   xmlns="http://www.w3.org/2000/svg"
   xmlns:svg="http://www.w3.org/2000/svg"><defs
   id="defs9" /><sodipodi:namedview
   id="namedview9"
   pagecolor="#ffffff"
   bordercolor="#cccccc"
   borderopacity="1"
   inkscape:showpageshadow="0"
   inkscape:pageopacity="1"
   inkscape:pagecheckerboard="0"
   inkscape:deskcolor="#d1d1d1"
   inkscape:zoom="2.8248916"
   inkscape:cx="-10.265881"
   inkscape:cy="58.940315"
   inkscape:window-width="1920"
   inkscape:window-height="991"
   inkscape:window-x="-9"
   inkscape:window-y="-9"
   inkscape:window-maximized="1"
   inkscape:current-layer="_x32_" />
<style
   type="text/css"
   id="style1">
	.st0{fill:#000000;}
</style>
<g
   id="g9"
   transform="matrix(0.10920874,0,0,0.10920874,4.0425626,4.0425626)"
   style="stroke-width:9.15678">
	<path
   class="st0"
   d="M 449.531,105.602 288.463,8.989 C 278.473,2.994 267.235,0 256.01,0 244.772,0 233.527,2.994 223.544,8.989 L 62.475,105.602 c -19.012,11.406 -30.647,31.949 -30.647,54.117 v 192.562 c 0,22.168 11.635,42.711 30.647,54.117 l 161.069,96.613 c 9.982,5.988 21.228,8.989 32.466,8.989 11.226,0 22.463,-3.001 32.453,-8.989 l 161.069,-96.613 c 19.013,-11.406 30.64,-31.95 30.64,-54.117 V 159.719 c 0,-22.168 -11.628,-42.711 -30.641,-54.117 z M 250.599,492.733 c -6.028,-0.745 -11.929,-2.713 -17.32,-5.949 L 72.209,390.171 C 58.903,382.182 50.753,367.802 50.753,352.281 V 159.719 c 0,-6.022 1.235,-11.862 3.518,-17.234 l 196.328,117.76 z M 59.669,133.114 c 3.364,-4.464 7.593,-8.318 12.54,-11.286 L 233.278,25.215 c 6.995,-4.196 14.85,-6.29 22.731,-6.29 7.868,0 15.724,2.095 22.718,6.29 l 161.069,96.613 c 4.942,2.968 9.184,6.821 12.54,11.286 L 256.01,250.881 Z m 401.584,219.167 c 0,15.521 -8.15,29.901 -21.456,37.89 l -161.069,96.613 c -5.397,3.236 -11.292,5.204 -17.32,5.949 V 260.246 l 196.328,-117.76 c 2.282,5.371 3.518,11.212 3.518,17.234 v 192.561 z"
   id="path1"
   style="stroke-width:9.15678" />
	<path
   class="st0"
   d="m 382.343,115.779 c -9.828,-7.284 -26.022,-7.465 -36.159,-0.416 -10.15,7.049 -10.405,18.677 -0.577,25.948 9.828,7.277 26.022,7.466 36.159,0.416 10.151,-7.056 10.406,-18.67 0.577,-25.948 z"
   id="path2"
   style="stroke-width:9.15678" />
	<path
   class="st0"
   d="m 165.62,113.564 c -9.828,-7.278 -26.022,-7.459 -36.172,-0.41 -10.137,7.056 -10.392,18.67 -0.571,25.948 9.835,7.284 26.028,7.459 36.165,0.416 10.152,-7.062 10.407,-18.676 0.578,-25.954 z"
   id="path3"
   style="stroke-width:9.15678" />
	<path
   class="st0"
   d="m 273.358,115.102 c -9.493,-7.029 -25.136,-7.21 -34.937,-0.396 -9.801,6.814 -10.056,18.039 -0.557,25.068 9.499,7.028 25.142,7.21 34.943,0.396 9.802,-6.814 10.057,-18.039 0.551,-25.068 z"
   id="path4"
   style="stroke-width:9.15678" />
	<path
   class="st0"
   d="m 89.289,248.303 c 11.158,6.083 20.194,1.96 20.194,-9.19 0,-11.158 -9.036,-25.129 -20.194,-31.211 -11.158,-6.082 -20.208,-1.967 -20.208,9.191 0,11.15 9.05,25.127 20.208,31.21 z"
   id="path5"
   style="stroke-width:9.15678" />
	<path
   class="st0"
   d="m 202.061,309.771 c 11.158,6.082 20.207,1.967 20.207,-9.184 0,-11.158 -9.05,-25.135 -20.207,-31.218 -11.151,-6.075 -20.194,-1.96 -20.194,9.198 0,11.151 9.043,25.121 20.194,31.204 z"
   id="path6"
   style="stroke-width:9.15678" />
	<path
   class="st0"
   d="m 89.289,361.082 c 11.158,6.082 20.194,1.967 20.194,-9.19 0,-11.158 -9.036,-25.129 -20.194,-31.211 -11.158,-6.083 -20.208,-1.967 -20.208,9.19 0,11.158 9.05,25.129 20.208,31.211 z"
   id="path7"
   style="stroke-width:9.15678" />
	<path
   class="st0"
   d="m 202.061,422.55 c 11.158,6.082 20.207,1.967 20.207,-9.191 0,-11.151 -9.05,-25.128 -20.207,-31.211 -11.151,-6.076 -20.194,-1.96 -20.194,9.191 0,11.158 9.043,25.129 20.194,31.211 z"
   id="path8"
   style="stroke-width:9.15678" />
	<path
   class="st0"
   d="m 361.948,282.911 c -17.858,9.728 -32.319,32.084 -32.319,49.928 0,17.85 14.461,24.437 32.319,14.709 17.844,-9.734 32.319,-32.09 32.319,-49.941 0,-17.845 -14.475,-24.431 -32.319,-14.696 z"
   id="path9"
   style="stroke-width:9.15678" />
</g>
</svg>
